<svg xmlns="http://www.w3.org/2000/svg" enable-background="new 0 0 32 32" viewBox="0 0 32 32"><rect width="240.649" height="194.734" x="-41.667" y=".5" fill="#E2E2E2" display="none"/><g display="none"><rect width="30" height="30" x="1" y="1" fill="#FFF"/><rect width="29" height="29" x="1.5" y="1.5" fill="#FFF"/><path fill="#0F77EA" d="M30,2v28H2V2H30 M31,1H1v30h30V1L31,1z"/><rect width="25.48" height="25.48" x="3.26" y="3.26" fill="none" stroke="#CCC" stroke-miterlimit="10" stroke-width=".5"/><path d="M13.892,24.123h3.357v-8.124h2.239l0.297-2.799h-2.536l0.003-1.402c0-0.73,0.07-1.121,1.117-1.121h1.4   v-2.8h-2.24c-2.69,0-3.637,1.358-3.637,3.642V13.2h-1.677V16h1.677V24.123z"/></g><rect width="29" height="29" x="1.5" y="1.5" fill="#FFF"/><path d="M30,2v28H2V2H30 M31,1H1v30h30V1L31,1z"/><rect width="29" height="29" x="1.5" y="1.5" fill="#FFF"/><path d="M30,2v28H2V2H30 M31,1H1v30h30V1L31,1z"/><g><path fill="#CCC" d="M28.99,28.99H3.01V3.01h25.98V28.99z M3.51,28.49h24.98V3.51H3.51V28.49z"/></g><g><path d="M13.892,24.123h3.357v-8.124h2.239l0.297-2.799h-2.536l0.003-1.402c0-0.73,0.07-1.121,1.117-1.121h1.4v-2.8h-2.24    c-2.69,0-3.637,1.358-3.637,3.642V13.2h-1.677V16h1.677V24.123z"/></g><g display="none"><rect width="29" height="29" x="1.5" y="1.5" fill="#FFF"/><path d="M30,2v28H2V2H30 M31,1H1v30h30V1L31,1z"/><rect width="29" height="29" x="1.5" y="1.5" fill="#FFF"/><path d="M30,2v28H2V2H30 M31,1H1v30h30V1L31,1z"/><rect width="25.48" height="25.48" x="3.26" y="3.26" fill="none" stroke="#CCC" stroke-miterlimit="10" stroke-width=".5"/><g><path fill="#0F77EA" d="M13.892,24.123h3.357v-8.124h2.239l0.297-2.799h-2.536l0.003-1.402c0-0.73,0.07-1.121,1.117-1.121h1.4    v-2.8h-2.24c-2.69,0-3.637,1.358-3.637,3.642V13.2h-1.677V16h1.677V24.123z"/></g></g></svg>